<mxfile host="Electron" agent="Mozilla/5.0 (Windows NT 10.0; Win64; x64) AppleWebKit/537.36 (KHTML, like Gecko) draw.io/24.7.5 Chrome/126.0.6478.183 Electron/31.3.0 Safari/537.36" version="24.7.5">
  <diagram name="Page-1" id="YzF1wYIKMdavqr_pMihd">
    <mxGraphModel dx="1004" dy="746" grid="1" gridSize="10" guides="1" tooltips="1" connect="1" arrows="1" fold="1" page="1" pageScale="1" pageWidth="850" pageHeight="1100" math="0" shadow="0">
      <root>
        <mxCell id="0" />
        <mxCell id="1" parent="0" />
        <mxCell id="ajgn6oq-DAd7ekMlXT-4-8" value="" style="rounded=0;fontSize=14;fontFamily=SimSun;" parent="1" vertex="1">
          <mxGeometry x="440" y="180" width="90" height="200" as="geometry" />
        </mxCell>
        <mxCell id="ajgn6oq-DAd7ekMlXT-4-25" value="BCC&#xa;检索式&#xa;数据集" style="rounded=0;fontSize=14;strokeColor=none;fontFamily=SimSun;" parent="1" vertex="1">
          <mxGeometry x="457.5" y="191" width="60" height="40" as="geometry" />
        </mxCell>
        <mxCell id="ajgn6oq-DAd7ekMlXT-4-46" value="" style="edgeStyle=orthogonalEdgeStyle;rounded=0;orthogonalLoop=1;jettySize=auto;html=1;fontFamily=SimSun;fontSize=14;" parent="1" source="ajgn6oq-DAd7ekMlXT-4-26" target="ajgn6oq-DAd7ekMlXT-4-41" edge="1">
          <mxGeometry relative="1" as="geometry" />
        </mxCell>
        <mxCell id="ajgn6oq-DAd7ekMlXT-4-26" value="正确&#xa;检索式" style="rounded=0;fontFamily=SimSun;fontSize=14;" parent="1" vertex="1">
          <mxGeometry x="452.5" y="250" width="65" height="50" as="geometry" />
        </mxCell>
        <mxCell id="ajgn6oq-DAd7ekMlXT-4-52" value="" style="edgeStyle=orthogonalEdgeStyle;rounded=0;orthogonalLoop=1;jettySize=auto;html=1;fontFamily=SimSun;fontSize=14;" parent="1" source="ajgn6oq-DAd7ekMlXT-4-27" target="ajgn6oq-DAd7ekMlXT-4-43" edge="1">
          <mxGeometry relative="1" as="geometry" />
        </mxCell>
        <mxCell id="ajgn6oq-DAd7ekMlXT-4-27" value="纠错&#xa;检索式" style="rounded=0;fontFamily=SimSun;fontSize=14;" parent="1" vertex="1">
          <mxGeometry x="452.5" y="316.25" width="65" height="51.5" as="geometry" />
        </mxCell>
        <mxCell id="ajgn6oq-DAd7ekMlXT-4-47" value="" style="edgeStyle=orthogonalEdgeStyle;rounded=0;orthogonalLoop=1;jettySize=auto;html=1;fontFamily=SimSun;fontSize=14;" parent="1" source="ajgn6oq-DAd7ekMlXT-4-41" target="ajgn6oq-DAd7ekMlXT-4-42" edge="1">
          <mxGeometry relative="1" as="geometry" />
        </mxCell>
        <mxCell id="ajgn6oq-DAd7ekMlXT-4-41" value="大语言&#xa;模型" style="rounded=0;fontFamily=SimSun;fontSize=14;" parent="1" vertex="1">
          <mxGeometry x="550" y="181" width="60" height="99" as="geometry" />
        </mxCell>
        <mxCell id="ajgn6oq-DAd7ekMlXT-4-48" value="" style="edgeStyle=orthogonalEdgeStyle;rounded=0;orthogonalLoop=1;jettySize=auto;html=1;fontFamily=SimSun;fontSize=14;" parent="1" source="ajgn6oq-DAd7ekMlXT-4-42" target="ajgn6oq-DAd7ekMlXT-4-43" edge="1">
          <mxGeometry relative="1" as="geometry">
            <Array as="points">
              <mxPoint x="660" y="290" />
              <mxPoint x="620" y="290" />
            </Array>
          </mxGeometry>
        </mxCell>
        <mxCell id="ajgn6oq-DAd7ekMlXT-4-42" value="添加&#xa;自然语言&#xa;描述" style="rounded=0;fontFamily=SimSun;fontSize=14;" parent="1" vertex="1">
          <mxGeometry x="630" y="180" width="60" height="100" as="geometry" />
        </mxCell>
        <mxCell id="ajgn6oq-DAd7ekMlXT-4-50" value="" style="edgeStyle=orthogonalEdgeStyle;rounded=0;orthogonalLoop=1;jettySize=auto;html=1;fontFamily=SimSun;fontSize=14;" parent="1" source="ajgn6oq-DAd7ekMlXT-4-43" target="ajgn6oq-DAd7ekMlXT-4-44" edge="1">
          <mxGeometry relative="1" as="geometry">
            <Array as="points">
              <mxPoint x="620" y="390" />
              <mxPoint x="570" y="390" />
            </Array>
          </mxGeometry>
        </mxCell>
        <mxCell id="ajgn6oq-DAd7ekMlXT-4-43" value="生成&#xa;微调数据集" style="rounded=0;fontFamily=SimSun;fontSize=14;" parent="1" vertex="1">
          <mxGeometry x="550" y="302" width="140" height="80" as="geometry" />
        </mxCell>
        <mxCell id="ajgn6oq-DAd7ekMlXT-4-51" value="" style="edgeStyle=orthogonalEdgeStyle;rounded=0;orthogonalLoop=1;jettySize=auto;html=1;fontFamily=SimSun;fontSize=14;" parent="1" source="ajgn6oq-DAd7ekMlXT-4-44" target="ajgn6oq-DAd7ekMlXT-4-45" edge="1">
          <mxGeometry relative="1" as="geometry" />
        </mxCell>
        <mxCell id="ajgn6oq-DAd7ekMlXT-4-44" value="大语言模型微调" style="rounded=0;fontFamily=SimSun;fontSize=14;" parent="1" vertex="1">
          <mxGeometry x="440" y="404" width="250" height="30" as="geometry" />
        </mxCell>
        <mxCell id="ajgn6oq-DAd7ekMlXT-4-45" value="服务部署" style="rounded=0;fontFamily=SimSun;fontSize=14;" parent="1" vertex="1">
          <mxGeometry x="440" y="450" width="250" height="30" as="geometry" />
        </mxCell>
      </root>
    </mxGraphModel>
  </diagram>
</mxfile>
